<svg width="72" height="72" viewBox="0 0 72 72" fill="none" xmlns="http://www.w3.org/2000/svg">
<rect x="0.2" y="0.2" width="71.6" height="71.6" rx="35.8" stroke="white" stroke-opacity="0.4" style="stroke:white;stroke-opacity:0.4;" stroke-width="0.4"/>
<g clip-path="url(#clip0_1381_10079)">
<path d="M46.5789 54.7928C47.8198 55.8928 49.9235 56.1369 51.5821 55.7364C53.6464 55.2397 55.0678 53.5158 55.5662 51.4412C56.0457 49.4492 56.1403 46.8298 55.2499 44.9375C53.8749 47.6875 49.0624 46.3125 46.9346 48.54C45.5115 50.0284 45.6249 51.8125 45.6249 51.8125" stroke="white" style="stroke:white;stroke-opacity:1;" stroke-width="1.4" stroke-linecap="round" stroke-linejoin="round"/>
<path d="M25.4211 17.2071C24.1801 16.1071 22.0764 15.863 20.4178 16.2635C18.3536 16.7602 16.9322 18.4841 16.4337 20.5586C15.9559 22.5507 15.8597 25.17 16.75 27.0624C18.125 24.3124 22.9375 25.6874 25.0653 23.4599C26.4884 21.9715 26.375 20.1874 26.375 20.1874" stroke="white" style="stroke:white;stroke-opacity:1;" stroke-width="1.4" stroke-linecap="round" stroke-linejoin="round"/>
<path d="M51.0941 51.046C47.2355 54.9166 41.897 57.3125 36 57.3125C24.23 57.3125 14.6875 47.77 14.6875 36C14.6875 33.8619 15.002 31.7977 15.5881 29.8503" stroke="white" style="stroke:white;stroke-opacity:1;" stroke-width="1.4" stroke-linecap="round" stroke-linejoin="round"/>
<path d="M20.906 20.9541C24.7646 17.0834 30.103 14.6875 36.0001 14.6875C47.7701 14.6875 57.3126 24.23 57.3126 36C57.3126 38.1381 56.998 40.2023 56.4119 42.1497" stroke="white" style="stroke:white;stroke-opacity:1;" stroke-width="1.4" stroke-linecap="round" stroke-linejoin="round"/>
<path d="M35.3125 38.0625V49.0625L44.9375 34.625H36.6875V22.9375L27.0625 37.375H35.3125V38.0625Z" stroke="white" style="stroke:white;stroke-opacity:1;" stroke-width="1.4" stroke-linecap="round" stroke-linejoin="round"/>
</g>
<defs>
<clipPath id="clip0_1381_10079">
<rect width="44" height="44" fill="white" style="fill:white;fill-opacity:1;" transform="translate(14 14)"/>
</clipPath>
</defs>
</svg>
