<svg width="64" height="64" viewBox="0 0 64 64" fill="none" xmlns="http://www.w3.org/2000/svg">
<rect width="64" height="64" rx="5" fill="#E9F3FF" style="fill:#E9F3FF;fill:color(display-p3 0.9137 0.9529 1.0000);fill-opacity:1;"/>
<path d="M21.5276 31.529C21.4077 31.529 21.2889 31.5054 21.1781 31.4595C21.0673 31.4137 20.9667 31.3464 20.8819 31.2616C20.7971 31.1768 20.7298 31.0762 20.6839 30.9654C20.638 30.8546 20.6144 30.7359 20.6144 30.6159C20.6144 30.496 20.638 30.3773 20.6839 30.2665C20.7298 30.1557 20.7971 30.055 20.8819 29.9703C20.9667 29.8855 21.0673 29.8182 21.1781 29.7724C21.2889 29.7265 21.4077 29.7029 21.5276 29.7029H24.3215C24.5636 29.703 24.7958 29.7992 24.967 29.9704C25.1382 30.1416 25.2344 30.3738 25.2344 30.6159C25.2344 30.8581 25.1382 31.0903 24.967 31.2615C24.7958 31.4327 24.5636 31.5289 24.3215 31.529H21.5276ZM19.1007 26.7355C18.9808 26.7355 18.8621 26.7119 18.7513 26.6661C18.6405 26.6202 18.5398 26.5529 18.455 26.4682C18.3702 26.3834 18.3029 26.2827 18.257 26.1719C18.2111 26.0611 18.1875 25.9424 18.1875 25.8225C18.1875 25.7026 18.2111 25.5838 18.257 25.473C18.3029 25.3622 18.3702 25.2616 18.455 25.1768C18.5398 25.092 18.6405 25.0247 18.7513 24.9789C18.8621 24.933 18.9808 24.9094 19.1007 24.9094H24.3197C24.4396 24.9094 24.5584 24.933 24.6692 24.9789C24.78 25.0247 24.8806 25.092 24.9654 25.1768C25.0502 25.2616 25.1175 25.3622 25.1634 25.473C25.2093 25.5838 25.2329 25.7026 25.2329 25.8225C25.2329 25.9424 25.2093 26.0611 25.1634 26.1719C25.1175 26.2827 25.0502 26.3834 24.9654 26.4682C24.8806 26.5529 24.78 26.6202 24.6692 26.6661C24.5584 26.7119 24.4396 26.7355 24.3197 26.7355H19.1007ZM21.5276 21.4088C21.4077 21.4088 21.2889 21.3852 21.1781 21.3394C21.0673 21.2935 20.9667 21.2262 20.8819 21.1415C20.7971 21.0567 20.7298 20.956 20.6839 20.8452C20.638 20.7344 20.6144 20.6157 20.6144 20.4958C20.6144 20.3759 20.638 20.2571 20.6839 20.1463C20.7298 20.0355 20.7971 19.9349 20.8819 19.8501C20.9667 19.7653 21.0673 19.698 21.1781 19.6522C21.2889 19.6063 21.4077 19.5827 21.5276 19.5827H24.3215C24.4414 19.5827 24.5602 19.6063 24.671 19.6522C24.7818 19.698 24.8825 19.7653 24.9673 19.8501C25.0521 19.9349 25.1193 20.0355 25.1652 20.1463C25.2111 20.2571 25.2348 20.3759 25.2348 20.4958C25.2348 20.6157 25.2111 20.7344 25.1652 20.8452C25.1193 20.956 25.0521 21.0567 24.9673 21.1415C24.8825 21.2262 24.7818 21.2935 24.671 21.3394C24.5602 21.3852 24.4414 21.4088 24.3215 21.4088H21.5276ZM19.1318 16.0821C18.8897 16.0821 18.6575 15.9859 18.4863 15.8146C18.3151 15.6434 18.2189 15.4112 18.2189 15.1691C18.2189 14.927 18.3151 14.6948 18.4863 14.5235C18.6575 14.3523 18.8897 14.2561 19.1318 14.256H24.3197C24.4396 14.256 24.5584 14.2796 24.6692 14.3255C24.78 14.3714 24.8806 14.4386 24.9654 14.5234C25.0502 14.6082 25.1175 14.7088 25.1634 14.8196C25.2093 14.9304 25.2329 15.0492 25.2329 15.1691C25.2329 15.289 25.2093 15.4077 25.1634 15.5185C25.1175 15.6293 25.0502 15.73 24.9654 15.8148C24.8806 15.8996 24.78 15.9668 24.6692 16.0127C24.5584 16.0585 24.4396 16.0821 24.3197 16.0821H19.1336H19.1318ZM28.9926 33.0519V18.3958C28.9926 14.8422 31.9162 11.9424 35.4917 11.9424C39.0653 11.9424 41.9907 14.8422 41.9907 18.3958V33.0593C44.6166 35.1081 46.1798 38.1358 46.1798 41.4812C46.1798 47.3173 41.3699 52.0871 35.4917 52.0871C29.6117 52.0871 24.8036 47.3173 24.8036 41.4812C24.8036 38.1175 26.385 35.0296 28.9926 33.0519ZM40.1628 18.3958C40.1628 15.8539 38.0592 13.7685 35.488 13.7685C32.9206 13.7685 30.8169 15.8539 30.8169 18.3958V33.9979L30.4225 34.2699C29.2516 35.0731 28.2941 36.1495 27.6329 37.406C26.9717 38.6625 26.6267 40.0613 26.6279 41.4812C26.6279 46.3057 30.616 50.261 35.4899 50.261C40.3637 50.261 44.3519 46.3057 44.3519 41.4812C44.3519 38.5832 42.933 35.9719 40.5426 34.2608L40.1628 33.9869V18.3958Z" fill="#0063B2" style="fill:#0063B2;fill:color(display-p3 0.0000 0.3882 0.6980);fill-opacity:1;"/>
<path d="M35.6513 18.3044C35.8935 18.3044 36.1257 18.4006 36.2969 18.5719C36.4682 18.7431 36.5644 18.9753 36.5644 19.2175V37.4784C36.5644 37.5983 36.5408 37.717 36.4949 37.8278C36.4491 37.9386 36.3818 38.0393 36.297 38.1241C36.2122 38.2089 36.1116 38.2762 36.0008 38.3221C35.89 38.368 35.7712 38.3916 35.6513 38.3916C35.5314 38.3916 35.4127 38.368 35.3019 38.3221C35.1911 38.2762 35.0904 38.2089 35.0056 38.1241C34.9209 38.0393 34.8536 37.9386 34.8077 37.8278C34.7619 37.717 34.7383 37.5983 34.7383 37.4784V19.2175C34.7383 18.9753 34.8345 18.7431 35.0057 18.5719C35.1769 18.4006 35.4092 18.3044 35.6513 18.3044ZM35.6513 20.1305C35.8935 20.1305 36.1257 20.0343 36.2969 19.8631C36.4682 19.6919 36.5644 19.4596 36.5644 19.2175V37.4784C36.5644 37.3584 36.5408 37.2397 36.4949 37.1289C36.4491 37.0181 36.3818 36.9174 36.297 36.8326C36.2122 36.7478 36.1116 36.6805 36.0008 36.6346C35.89 36.5887 35.7712 36.5651 35.6513 36.5651C35.5314 36.5651 35.4127 36.5887 35.3019 36.6346C35.1911 36.6805 35.0904 36.7478 35.0056 36.8326C34.9209 36.9174 34.8536 37.0181 34.8077 37.1289C34.7619 37.2397 34.7383 37.3584 34.7383 37.4784V19.2175C34.7383 19.4596 34.8345 19.6919 35.0057 19.8631C35.1769 20.0343 35.4092 20.1305 35.6513 20.1305Z" fill="#0063B2" style="fill:#0063B2;fill:color(display-p3 0.0000 0.3882 0.6980);fill-opacity:1;"/>
<path d="M35.6507 45.6956C36.2503 45.6957 36.844 45.5776 37.3979 45.3482C37.9518 45.1188 38.4551 44.7826 38.8791 44.3587C39.3031 43.9347 39.6394 43.4314 39.8688 42.8775C40.0983 42.3236 40.2164 41.73 40.2164 41.1304C40.2164 40.5309 40.0983 39.9372 39.8688 39.3833C39.6394 38.8294 39.3031 38.3261 38.8791 37.9022C38.4551 37.4782 37.9518 37.142 37.3979 36.9126C36.844 36.6832 36.2503 36.5651 35.6507 36.5652C34.44 36.5653 33.279 37.0463 32.4229 37.9025C31.5669 38.7586 31.0859 39.9197 31.0859 41.1304C31.0859 42.3411 31.5669 43.5022 32.4229 44.3583C33.279 45.2145 34.44 45.6955 35.6507 45.6956ZM35.6507 43.8695C35.291 43.8696 34.9348 43.7988 34.6024 43.6611C34.27 43.5235 33.968 43.3217 33.7136 43.0674C33.4593 42.813 33.2575 42.511 33.1198 42.1787C32.9821 41.8464 32.9113 41.4901 32.9113 41.1304C32.9113 40.7707 32.9821 40.4145 33.1198 40.0821C33.2575 39.7498 33.4593 39.4478 33.7136 39.1934C33.968 38.9391 34.27 38.7373 34.6024 38.5997C34.9348 38.462 35.291 38.3912 35.6507 38.3913C36.3771 38.3914 37.0737 38.68 37.5874 39.1937C38.101 39.7073 38.3895 40.404 38.3895 41.1304C38.3895 41.8568 38.101 42.5535 37.5874 43.0671C37.0737 43.5808 36.3771 43.8694 35.6507 43.8695Z" fill="#0063B2" style="fill:#0063B2;fill:color(display-p3 0.0000 0.3882 0.6980);fill-opacity:1;"/>
</svg>
