<svg width="64" height="64" viewBox="0 0 64 64" fill="none" xmlns="http://www.w3.org/2000/svg">
<rect width="64" height="64" rx="5" fill="#E9F3FF" style="fill:#E9F3FF;fill:color(display-p3 0.9137 0.9529 1.0000);fill-opacity:1;"/>
<path d="M15.0977 26.125C15.2608 26.1096 15.4252 26.1348 15.5762 26.1973L30.002 32.1621L30.1318 32.2275C30.2563 32.3019 30.3634 32.4023 30.4443 32.5225C30.5522 32.6826 30.6093 32.8706 30.6094 33.0625V48.8242C30.6093 49.0824 30.5059 49.3312 30.3203 49.5146C30.153 49.6798 29.9312 49.7794 29.6963 49.7979H29.6152C29.506 49.7978 29.3977 49.7797 29.2949 49.7451L29.1943 49.7051L14.7705 43.0352C14.5997 42.9561 14.4553 42.8304 14.3545 42.6738C14.2537 42.5172 14.2002 42.3355 14.2002 42.1504V27.0977C14.2003 26.9373 14.2406 26.7793 14.3174 26.6377C14.3943 26.4959 14.5055 26.3746 14.6416 26.2852C14.7778 26.1957 14.9345 26.1404 15.0977 26.125ZM48.7793 26.123C48.9428 26.138 49.0998 26.1929 49.2363 26.2822C49.3728 26.3715 49.4843 26.4929 49.5615 26.6348C49.6387 26.7766 49.6796 26.935 49.6797 27.0957V42.8574L49.6689 43C49.6477 43.1414 49.5947 43.2772 49.5137 43.3975C49.4327 43.5176 49.3266 43.6191 49.2021 43.6934L49.0713 43.7588L34.6475 49.7188C34.526 49.769 34.3955 49.7949 34.2637 49.7949H34.2051C33.9629 49.7806 33.7334 49.6804 33.5615 49.5107C33.3759 49.3273 33.2725 49.0785 33.2725 48.8203V33.1514L33.2832 33.0088C33.3042 32.8681 33.3564 32.7331 33.4365 32.6133C33.5435 32.4534 33.6957 32.3273 33.875 32.252L48.3008 26.1963L48.2998 26.1953C48.4508 26.1323 48.6159 26.1081 48.7793 26.123ZM35.1025 33.8613L35.2568 34.0137V47.3516L47.6973 42.207V28.5742L35.1025 33.8613ZM16.1826 41.5293L28.3398 47.1504L28.624 47.2812V33.709L28.5 33.6582L16.1826 28.5625V41.5293ZM33.2695 32.502L33.1846 32.6523C33.2092 32.6003 33.2372 32.5493 33.2695 32.501C33.2736 32.495 33.2781 32.4893 33.2822 32.4834C33.278 32.4895 33.2737 32.4958 33.2695 32.502ZM30.3848 32.1621C30.4709 32.2336 30.5473 32.3167 30.6104 32.4102C30.6296 32.4388 30.6445 32.47 30.6611 32.5C30.6447 32.4702 30.6295 32.4396 30.6104 32.4111C30.5473 32.3176 30.471 32.2339 30.3848 32.1621ZM26.2158 25.9941C26.3474 25.9969 26.4775 26.0265 26.5977 26.0791L26.5996 26.0801L32.0146 28.3652L32.0928 28.3984L32.1709 28.3643L36.5996 26.4736L36.5986 26.4727C36.8399 26.372 37.1123 26.3706 37.3555 26.4668C37.5988 26.5631 37.7929 26.7502 37.8965 26.9863C37.9999 27.2224 38.0049 27.489 37.9102 27.7285C37.8271 27.9382 37.6733 28.1131 37.4756 28.2236L37.3887 28.2666L32.4902 30.3604C32.3659 30.4135 32.2314 30.4413 32.0957 30.4414H32.0752C31.981 30.4396 31.8875 30.4251 31.7979 30.3975L31.7041 30.3633L25.8174 27.876L25.8154 27.875L25.7266 27.834C25.6397 27.7883 25.5598 27.73 25.4902 27.6611C25.3978 27.5695 25.3249 27.4602 25.2754 27.3408C25.226 27.2213 25.2011 27.0928 25.2021 26.9639C25.2032 26.8349 25.2298 26.7066 25.2812 26.5879C25.3327 26.4693 25.408 26.3617 25.502 26.2715C25.596 26.1813 25.7078 26.1101 25.8301 26.0625C25.9526 26.0149 26.0841 25.9914 26.2158 25.9941ZM25.4375 27.8809C25.4775 27.9133 25.5206 27.9416 25.5645 27.9688C25.5539 27.9622 25.5426 27.957 25.5322 27.9502L25.4375 27.8809ZM25.1406 27.5225C25.1642 27.5664 25.1918 27.6078 25.2207 27.6484C25.2144 27.6395 25.2073 27.6312 25.2012 27.6221L25.1406 27.5225ZM25.0576 26.6182C25.0418 26.6678 25.0297 26.7184 25.0205 26.7695C25.0228 26.7565 25.0246 26.7434 25.0273 26.7305L25.0576 26.6182ZM36.9746 26.1963C37.1288 26.1948 37.2838 26.2226 37.4297 26.2803C37.5755 26.338 37.7069 26.4232 37.8174 26.5293L37.8965 26.6133C37.7719 26.4678 37.6119 26.3535 37.4297 26.2812C37.2837 26.2235 37.129 26.195 36.9746 26.1963ZM25.2832 26.2119C25.2495 26.2513 25.2194 26.2934 25.1914 26.3369C25.1983 26.3262 25.2046 26.3151 25.2119 26.3047L25.2832 26.2119ZM36.8594 26.2031L36.7441 26.2207C36.8202 26.2052 36.8973 26.197 36.9746 26.1963C36.9361 26.1966 36.8977 26.1991 36.8594 26.2031ZM14.5312 26.1182L14.4277 26.1953C14.461 26.1679 14.495 26.141 14.5312 26.1172C14.542 26.1102 14.5535 26.1043 14.5645 26.0977C14.5534 26.1044 14.5421 26.111 14.5312 26.1182ZM49.2188 26.042C49.2624 26.0634 49.3048 26.0875 49.3457 26.1143C49.3747 26.1332 49.4016 26.1554 49.4287 26.1768C49.4017 26.1555 49.3746 26.1342 49.3457 26.1152L49.2188 26.042ZM25.6504 25.9238C25.603 25.9478 25.5573 25.9748 25.5137 26.0049C25.5249 25.9972 25.5364 25.9898 25.5479 25.9824L25.6504 25.9238ZM26.2197 25.7939C26.3103 25.7958 26.3999 25.8092 26.4873 25.8311C26.4381 25.8187 26.3883 25.8088 26.3379 25.8027L26.2197 25.7949L26.1016 25.7979C26.1408 25.7948 26.1802 25.7931 26.2197 25.7939ZM43.583 25.5303C43.6947 25.5638 43.8112 25.5829 43.9297 25.583C43.9881 25.583 44.046 25.5775 44.1035 25.5693C44.046 25.5778 43.9881 25.583 43.9297 25.583C43.8111 25.5829 43.6948 25.564 43.583 25.5303ZM43.415 25.4668C43.4668 25.4913 43.5204 25.5115 43.5752 25.5283C43.4641 25.494 43.3578 25.445 43.2607 25.3799L43.415 25.4668ZM19.5264 25.3867C19.6276 25.3998 19.7298 25.4005 19.8311 25.3877C19.7298 25.4004 19.6276 25.3998 19.5264 25.3867ZM31.9961 14.2021C32.1312 14.2022 32.2647 14.2296 32.3887 14.2822L49.2012 21.4248L49.3291 21.4912C49.4517 21.5661 49.5571 21.6666 49.6367 21.7861C49.7426 21.9454 49.7988 22.1322 49.7988 22.3223C49.7987 22.5122 49.7426 22.6983 49.6367 22.8574C49.5571 22.9769 49.4517 23.0775 49.3291 23.1523L49.2012 23.2188L44.3232 25.3037C44.1992 25.3568 44.0651 25.3827 43.9297 25.3828C43.7014 25.3826 43.4803 25.3059 43.3037 25.1641C43.1268 25.0219 43.0051 24.824 42.959 24.6045C42.913 24.3851 42.9451 24.1562 43.0498 23.957C43.1546 23.7578 43.3265 23.5994 43.5361 23.5098L46.3096 22.3252L32 16.2441L31.9209 16.2773L17.7012 22.3213L20.0859 23.3291C20.3237 23.4339 20.5097 23.6263 20.6045 23.8643C20.6994 24.1027 20.6957 24.3688 20.5938 24.6045C20.4915 24.8403 20.2985 25.0284 20.0566 25.126C19.845 25.2113 19.6106 25.2219 19.3936 25.1572L19.3018 25.125L14.7988 23.2197C14.6205 23.1441 14.4687 23.0187 14.3623 22.8594C14.2558 22.6999 14.1993 22.5128 14.1992 22.3223C14.1992 22.1317 14.2559 21.9447 14.3623 21.7852C14.4687 21.6258 14.6205 21.5005 14.7988 21.4248L14.7998 21.4238L31.6025 14.2822L31.6973 14.2471C31.7937 14.2171 31.8945 14.2021 31.9961 14.2021ZM19.3359 25.3486C19.3847 25.3632 19.4345 25.3726 19.4844 25.3809C19.4727 25.3789 19.4608 25.3782 19.4492 25.376L19.3359 25.3486ZM20.2373 25.2627L20.1318 25.3115C20.1801 25.292 20.2257 25.2674 20.2705 25.2422C20.2592 25.2486 20.2488 25.2567 20.2373 25.2627ZM42.8291 23.9561C42.8084 24.0054 42.7919 24.0561 42.7783 24.1074C42.7835 24.0881 42.7888 24.0689 42.7949 24.0498L42.8291 23.9561ZM20.79 23.79C20.8116 23.8442 20.8277 23.9 20.8408 23.9561C20.8364 23.9372 20.8325 23.9181 20.8271 23.8994L20.79 23.79ZM42.9629 23.7188C42.9977 23.671 43.0367 23.6269 43.0781 23.585C43.0383 23.6254 43.0005 23.668 42.9668 23.7139L42.9629 23.7188ZM20.458 23.3281C20.4872 23.3529 20.5154 23.3788 20.542 23.4062L20.6172 23.4922C20.5933 23.4622 20.5677 23.4338 20.541 23.4062L20.458 23.3281ZM43.3652 23.3701C43.3195 23.3944 43.2762 23.4223 43.2344 23.4521C43.2486 23.442 43.2626 23.4314 43.2773 23.4219L43.3652 23.3701ZM14.7217 21.2402C14.6146 21.2856 14.5153 21.3459 14.4268 21.4189C14.4708 21.3826 14.5174 21.3491 14.5664 21.3193L14.7217 21.2402ZM37.791 28.2402C37.7717 28.2578 37.7519 28.2748 37.7314 28.291C37.7519 28.2748 37.7717 28.2578 37.791 28.2402ZM43.166 25.3086C43.1251 25.2748 43.0865 25.2388 43.0508 25.2002C43.0865 25.2388 43.1251 25.2748 43.166 25.3086Z" fill="#0063B2" style="fill:#0063B2;fill:color(display-p3 0.0000 0.3882 0.6980);fill-opacity:1;"/>
<path d="M22.2227 36.2025C22.3527 36.2069 22.4815 36.2389 22.6007 36.2972L22.6046 36.2992L32.1973 40.7416L32.2745 40.7806C32.4482 40.8809 32.5929 41.0361 32.6866 41.2289C32.7937 41.4495 32.826 41.7048 32.7784 41.9496C32.7307 42.1942 32.6064 42.4115 32.4288 42.5658C32.2515 42.7197 32.0319 42.8022 31.8077 42.8021C31.7078 42.802 31.608 42.7857 31.5128 42.7533L31.418 42.7152L21.8243 38.2728L21.8204 38.2718L21.7315 38.2269C21.6449 38.1778 21.5645 38.1147 21.4942 38.0394C21.4004 37.939 21.3253 37.8181 21.2745 37.6849C21.2238 37.5518 21.1988 37.4084 21.2003 37.264C21.2018 37.1197 21.2299 36.9769 21.2833 36.8451C21.3368 36.7132 21.415 36.5946 21.5108 36.4965C21.6066 36.3984 21.7188 36.3219 21.8409 36.2718C21.9629 36.2218 22.0928 36.1982 22.2227 36.2025ZM32.9473 42.1019C32.9481 42.0993 32.9495 42.0968 32.9503 42.0941L32.9757 41.9877C32.9781 41.9752 32.9794 41.9621 32.9815 41.9496C32.9795 41.9619 32.978 41.9744 32.9757 41.9867C32.9681 42.0256 32.9582 42.0642 32.9473 42.1019ZM22.544 36.0599C22.593 36.0761 22.6417 36.0946 22.6885 36.1176L32.2823 40.559C32.3452 40.5881 32.4053 40.6228 32.462 40.6625L32.544 40.7259C32.4641 40.6591 32.3756 40.6036 32.2813 40.5599L22.6885 36.1176C22.6417 36.0946 22.5931 36.0761 22.544 36.0599ZM21.0001 37.2621L21.005 37.3881C21.0094 37.4413 21.0178 37.4941 21.0284 37.5463C21.0094 37.4528 20.9991 37.3572 21.0001 37.2611C21.0007 37.205 21.0063 37.1494 21.0137 37.0941C21.0062 37.1496 21.0007 37.2058 21.0001 37.2621ZM21.0987 36.7699L21.0567 36.8881C21.041 36.9408 21.0298 36.9948 21.0206 37.0492C21.0368 36.9532 21.0622 36.8589 21.0987 36.7689C21.12 36.7165 21.1454 36.6663 21.1729 36.6176C21.1453 36.6664 21.12 36.7173 21.0987 36.7699ZM21.3673 36.3568L21.2862 36.4486C21.2517 36.4918 21.2203 36.5376 21.1915 36.5853C21.2417 36.5021 21.3 36.4247 21.3673 36.3558C21.406 36.3161 21.448 36.2801 21.4913 36.2465C21.4479 36.2803 21.4061 36.317 21.3673 36.3568ZM21.6563 36.1381C21.6081 36.164 21.5621 36.1942 21.5176 36.2269C21.5843 36.178 21.6548 36.1356 21.7296 36.1019L21.6563 36.1381ZM22.2296 36.0023C22.3202 36.0054 22.4099 36.0206 22.4971 36.0453C22.4479 36.0314 22.3982 36.0202 22.3477 36.0131L22.2296 36.0033C22.1503 36.0006 22.0711 36.006 21.9932 36.0199C22.0711 36.0058 22.1502 35.9996 22.2296 36.0023Z" fill="#0063B2" style="fill:#0063B2;fill:color(display-p3 0.0000 0.3882 0.6980);fill-opacity:1;"/>
<path d="M32.457 42.9971L32.3721 43.002C32.4149 43.002 32.444 42.9979 32.4678 42.9932C32.4642 42.9939 32.4609 42.9965 32.457 42.9971ZM41.7988 37.2021C41.9337 37.2048 42.0671 37.2339 42.1904 37.2881C42.3139 37.3424 42.4257 37.421 42.5186 37.5186C42.6113 37.616 42.6836 37.731 42.7314 37.8564C42.7793 37.9821 42.8023 38.1167 42.7979 38.251C42.7934 38.3851 42.7621 38.5175 42.7061 38.6396C42.65 38.7618 42.5697 38.8717 42.4707 38.9629C42.3964 39.0313 42.3125 39.0882 42.2217 39.1318L42.1279 39.1709H42.127L32.5801 42.7344L32.5791 42.7354C32.5375 42.7511 32.5067 42.765 32.4824 42.7764C32.455 42.7892 32.4476 42.7923 32.4385 42.7959L32.3721 42.8018H32.3701C32.1399 42.8038 31.9135 42.7421 31.7168 42.623C31.5227 42.5055 31.3651 42.3364 31.2607 42.1357C31.1692 41.887 31.178 41.6121 31.2871 41.3701C31.3977 41.1249 31.6021 40.9337 31.8545 40.8379L41.4014 37.2744L41.4043 37.2734C41.5298 37.224 41.6639 37.1995 41.7988 37.2021ZM31.0146 41.5879C31.01 41.6158 31.0066 41.6438 31.0039 41.6719C31.0066 41.6438 31.01 41.6158 31.0146 41.5879ZM31.1533 41.1943L31.1055 41.2881C31.1322 41.2289 31.1639 41.1727 31.1992 41.1191C31.1831 41.1436 31.1677 41.1686 31.1533 41.1943ZM42.6904 39.0234L42.6064 39.1094C42.6459 39.073 42.6817 39.0332 42.7158 38.9922C42.7072 39.0025 42.6994 39.0134 42.6904 39.0234ZM42.9326 38.6104L42.8877 38.7227C42.9106 38.6727 42.9285 38.6208 42.9443 38.5684C42.9401 38.5823 42.9373 38.5966 42.9326 38.6104ZM42.9814 38.0176L42.9951 38.1367C42.9911 38.0745 42.9813 38.013 42.9678 37.9521C42.9727 37.9739 42.9778 37.9956 42.9814 38.0176ZM42.3789 37.1592C42.4376 37.1923 42.4925 37.2312 42.5449 37.2734C42.5238 37.2564 42.5027 37.2393 42.4805 37.2236L42.3789 37.1592ZM42.1582 37.0625L42.2715 37.1055C42.2226 37.084 42.1722 37.0666 42.1211 37.0518C42.1335 37.0554 42.146 37.0585 42.1582 37.0625ZM41.668 37.0068C41.597 37.0133 41.5268 37.0262 41.458 37.0449C41.5268 37.0262 41.597 37.0133 41.668 37.0068ZM31.0283 41.5146L31.0322 41.501C31.0252 41.5298 31.0195 41.5588 31.0146 41.5879C31.0187 41.5634 31.0228 41.5389 31.0283 41.5146Z" fill="#0063B2" style="fill:#0063B2;fill:color(display-p3 0.0000 0.3882 0.6980);fill-opacity:1;"/>
</svg>
